<svg version="1.1" id="Layer_1" xmlns="http://www.w3.org/2000/svg" xmlns:xlink="http://www.w3.org/1999/xlink" x="0px" y="0px"
	 width="100%" viewBox="0 0 162 160" enable-background="new 0 0 162 160" xml:space="preserve">
<path fill="#FEFFFE" opacity="1.000000" stroke="none" 
	d="
M73.000000,161.000000 
	C49.034691,161.000000 25.069382,161.000000 1.052037,161.000000 
	C1.052037,107.778496 1.052037,54.556923 1.052037,1.000000 
	C24.353157,1.000000 47.707920,1.000000 71.288399,1.295640 
	C66.670303,3.047415 61.826496,4.503550 56.598480,5.975049 
	C50.804646,8.650048 45.395020,11.309683 39.671444,14.103003 
	C34.890652,18.130630 30.423817,22.024572 25.660908,26.080029 
	C20.710712,31.592997 15.115973,36.331650 13.526693,43.976303 
	C10.792125,49.066280 7.591312,53.860275 6.157860,59.134605 
	C3.067388,70.505859 1.332928,82.303398 4.207199,93.919182 
	C6.326247,102.482895 9.993580,110.663490 13.109079,119.332062 
	C17.483688,125.126778 21.720259,130.604218 26.109997,136.376312 
	C30.845427,140.439407 35.427685,144.207825 40.175270,148.276596 
	C45.231480,150.997589 50.122364,153.418213 55.342140,156.022217 
	C59.115059,157.118393 62.559078,158.031189 66.343193,159.115295 
	C68.788857,159.857742 70.894432,160.428864 73.000000,161.000000 
z"/>
<path fill="#FEFEFF" opacity="1.000000" stroke="none" 
	d="
M92.000000,1.000000 
	C115.594032,1.000000 139.188065,1.000000 163.000000,1.000000 
	C163.000000,24.687117 163.000000,48.374901 162.707367,72.258896 
	C162.278107,71.307686 162.167160,70.156509 162.000824,69.013405 
	C160.508865,58.760815 157.109741,49.230125 151.180542,40.304512 
	C148.341843,35.989716 145.554413,32.011745 142.659576,27.727306 
	C139.059387,24.534060 135.566574,21.647280 131.912445,18.478611 
	C129.200378,16.394808 126.649597,14.592891 123.900528,12.522861 
	C120.799149,10.851624 117.896072,9.448501 114.776505,7.766967 
	C111.376602,6.380818 108.193192,5.273080 104.616043,4.066616 
	C101.515930,3.555120 98.809563,3.142349 95.846687,2.514963 
	C94.393456,1.866898 93.196732,1.433449 92.000000,1.000000 
z"/>
<path fill="#FEFEFF" opacity="1.000000" stroke="none" 
	d="
M163.000000,91.000000 
	C163.000000,114.261223 163.000000,137.522446 163.000000,161.000000 
	C139.312881,161.000000 115.625099,161.000000 91.714539,160.717896 
	C92.994644,160.240646 94.497528,160.045486 96.380455,159.880524 
	C99.175156,159.249817 101.589798,158.588913 104.370850,157.913818 
	C107.166794,156.958496 109.596313,156.017395 112.390350,155.051208 
	C114.846382,154.041153 116.937904,153.056183 119.363724,152.025421 
	C120.864914,150.786026 122.031799,149.592438 123.575378,148.357941 
	C126.973854,146.548981 129.995636,144.780914 133.326813,142.882217 
	C136.696106,139.818481 139.755997,136.885391 143.113525,133.778381 
	C146.266052,129.387192 149.120926,125.169930 152.238708,120.726265 
	C156.001068,110.666573 159.500534,100.833290 163.000000,91.000000 
z"/>
<path fill="#BEE0E6" opacity="1.000000" stroke="none" 
	d="
M73.333328,161.000000 
	C70.894432,160.428864 68.788857,159.857742 66.342072,158.652588 
	C66.000259,140.708237 65.999664,123.397881 66.375893,106.001663 
	C71.098007,104.505051 69.210892,102.465561 67.077652,100.844788 
	C60.873760,96.131233 59.298180,89.852036 60.048779,82.448204 
	C60.779972,75.235756 67.590607,69.334587 75.026802,70.350662 
	C75.010010,100.884712 75.005005,130.942352 75.000000,161.000000 
	C74.555557,161.000000 74.111107,161.000000 73.333328,161.000000 
z"/>
<path fill="#BADBE8" opacity="1.000000" stroke="none" 
	d="
M75.454109,161.000000 
	C75.005005,130.942352 75.010010,100.884712 75.411743,70.277802 
	C77.917404,71.277161 81.096954,72.385178 81.947418,74.451714 
	C85.380905,82.794746 87.089973,91.324623 81.617012,99.782188 
	C78.130173,105.170525 78.602631,105.798141 84.998970,106.738953 
	C84.999115,125.126358 84.999557,143.063187 85.000000,161.000000 
	C81.969406,161.000000 78.938812,161.000000 75.454109,161.000000 
z"/>
<path fill="#9FBCF8" opacity="1.000000" stroke="none" 
	d="
M163.000000,90.532059 
	C159.500534,100.833290 156.001068,110.666573 152.003098,120.421234 
	C151.003052,118.540878 150.072922,116.741020 150.065048,114.937149 
	C149.965927,92.243675 149.968094,69.549484 150.053604,46.855904 
	C150.061417,44.782932 150.821213,42.712795 151.231812,40.641342 
	C157.109741,49.230125 160.508865,58.760815 162.000824,69.013405 
	C162.167160,70.156509 162.278107,71.307686 162.707367,72.727554 
	C163.000000,78.688042 163.000000,84.376083 163.000000,90.532059 
z"/>
<path fill="#B6D7EB" opacity="1.000000" stroke="none" 
	d="
M91.571533,1.000000 
	C93.196732,1.433449 94.393456,1.866898 95.811371,3.012262 
	C96.021706,25.081038 96.091942,46.438625 95.900665,67.793869 
	C95.875854,70.564301 94.501457,73.322632 93.449539,75.859726 
	C90.392632,65.858253 87.638374,56.083618 84.955162,45.875183 
	C85.350792,43.178085 85.939590,40.916714 85.956116,38.651169 
	C86.047676,26.101339 85.999992,13.550496 86.000000,1.000000 
	C87.714355,1.000000 89.428719,1.000000 91.571533,1.000000 
z"/>
<path fill="#C0E2E6" opacity="1.000000" stroke="none" 
	d="
M56.982685,5.959684 
	C61.826496,4.503550 66.670303,3.047415 71.757057,1.295640 
	C72.000000,1.000000 72.500000,1.000000 72.750000,1.468657 
	C72.974358,15.376477 72.948715,28.815639 72.544785,42.318897 
	C67.110146,42.527813 62.053806,42.672638 56.998005,42.360245 
	C56.993256,29.921915 56.987972,17.940800 56.982685,5.959684 
z"/>
<path fill="#BADCE9" opacity="1.000000" stroke="none" 
	d="
M72.923065,42.254803 
	C72.948715,28.815639 72.974358,15.376477 73.000000,1.468657 
	C77.024544,1.000000 81.049088,1.000000 85.536819,1.000000 
	C85.999992,13.550496 86.047676,26.101339 85.956116,38.651169 
	C85.939590,40.916714 85.350792,43.178085 84.625412,45.702858 
	C81.621330,41.181877 76.492401,44.094097 72.923065,42.254803 
z"/>
<path fill="#B6D7EB" opacity="1.000000" stroke="none" 
	d="
M85.428467,161.000000 
	C84.999557,143.063187 84.999115,125.126358 85.433075,106.599899 
	C88.879616,105.917015 91.891754,105.823776 94.932343,106.215317 
	C94.973877,121.975349 94.943298,137.250885 95.044495,152.525558 
	C95.060684,154.969131 95.666931,157.408829 96.000404,159.850311 
	C94.497528,160.045486 92.994644,160.240646 91.245880,160.717896 
	C89.285645,161.000000 87.571281,161.000000 85.428467,161.000000 
z"/>
<path fill="#C5E9E2" opacity="1.000000" stroke="none" 
	d="
M56.598480,5.975049 
	C56.987972,17.940800 56.993256,29.921915 56.627754,42.447495 
	C49.852032,44.605522 47.684856,46.796066 48.866653,50.702824 
	C49.154434,51.654160 50.005547,52.719086 50.875637,53.105003 
	C51.407436,53.340874 52.498234,52.429478 53.286709,51.949188 
	C54.760681,51.051346 56.197350,50.092266 57.649536,49.158665 
	C58.373398,51.255314 59.809036,53.402969 59.663265,55.437305 
	C59.410690,58.962200 58.139114,62.408150 57.364918,65.902718 
	C55.125240,76.012169 52.773609,86.100380 50.769711,96.256859 
	C49.893120,100.699730 50.301167,105.000099 55.995995,106.665535 
	C55.668427,123.324478 55.340836,139.581665 55.013245,155.838852 
	C50.122364,153.418213 45.231480,150.997589 40.171955,147.854309 
	C40.327343,139.528839 40.863728,131.927338 40.912010,124.322754 
	C40.955013,117.550232 40.229744,110.773453 40.254162,104.000038 
	C40.287891,94.644554 40.910091,85.290306 40.903427,75.935799 
	C40.896885,66.748779 40.310726,57.563679 40.175629,48.374840 
	C40.007042,36.907879 40.039658,25.437962 39.985397,13.969318 
	C45.395020,11.309683 50.804646,8.650048 56.598480,5.975049 
z"/>
<path fill="#CCF0E1" opacity="1.000000" stroke="none" 
	d="
M39.671448,14.103003 
	C40.039658,25.437962 40.007042,36.907879 40.175629,48.374840 
	C40.310726,57.563679 40.896885,66.748779 40.903427,75.935799 
	C40.910091,85.290306 40.287891,94.644554 40.254162,104.000038 
	C40.229744,110.773453 40.955013,117.550232 40.912010,124.322754 
	C40.863728,131.927338 40.327343,139.528839 40.006630,147.553955 
	C35.427685,144.207825 30.845427,140.439407 26.134533,135.944611 
	C26.337238,132.109650 26.948250,129.001801 26.956314,125.892357 
	C27.030376,97.336273 27.047544,68.779770 26.953138,40.223816 
	C26.937370,35.454338 26.304628,30.686897 25.956982,25.918514 
	C30.423817,22.024572 34.890652,18.130630 39.671448,14.103003 
z"/>
<path fill="#D1F6DE" opacity="1.000000" stroke="none" 
	d="
M25.660910,26.080029 
	C26.304628,30.686897 26.937370,35.454338 26.953138,40.223816 
	C27.047544,68.779770 27.030376,97.336273 26.956314,125.892357 
	C26.948250,129.001801 26.337238,132.109650 25.981361,135.649948 
	C21.720259,130.604218 17.483688,125.126778 13.416766,119.092819 
	C14.057574,116.481323 14.928419,114.428253 14.938219,112.371078 
	C15.038837,91.251312 15.026085,70.130783 14.950668,49.010803 
	C14.944578,47.305286 14.241084,45.602261 13.861666,43.898075 
	C15.115973,36.331650 20.710712,31.592997 25.660910,26.080029 
z"/>
<path fill="#D5FBDD" opacity="1.000000" stroke="none" 
	d="
M13.526693,43.976303 
	C14.241084,45.602261 14.944578,47.305286 14.950668,49.010803 
	C15.026085,70.130783 15.038837,91.251312 14.938219,112.371078 
	C14.928419,114.428253 14.057574,116.481323 13.278725,118.775543 
	C9.993580,110.663490 6.326247,102.482895 4.207199,93.919182 
	C1.332928,82.303398 3.067388,70.505859 6.157860,59.134605 
	C7.591312,53.860275 10.792125,49.066280 13.526693,43.976303 
z"/>
<path fill="#C0E3E5" opacity="1.000000" stroke="none" 
	d="
M55.342140,156.022217 
	C55.340836,139.581665 55.668427,123.324478 56.384399,106.606087 
	C59.848209,106.125763 62.923641,106.106644 65.999069,106.087524 
	C65.999664,123.397881 66.000259,140.708237 66.001976,158.481277 
	C62.559078,158.031189 59.115059,157.118393 55.342140,156.022217 
z"/>
<path fill="#B3D3ED" opacity="1.000000" stroke="none" 
	d="
M96.380455,159.880524 
	C95.666931,157.408829 95.060684,154.969131 95.044495,152.525558 
	C94.943298,137.250885 94.973877,121.975349 95.085892,105.874489 
	C95.792511,102.273598 97.074905,99.431679 96.818611,96.736053 
	C96.160889,89.818245 94.819992,82.965393 93.752197,76.086571 
	C94.501457,73.322632 95.875854,70.564301 95.900665,67.793869 
	C96.091942,46.438625 96.021706,25.081038 96.067871,3.226878 
	C98.809563,3.142349 101.515930,3.555120 104.604279,4.444977 
	C104.707008,6.210752 104.197449,7.497149 104.184608,8.788486 
	C104.071938,20.117468 104.047859,31.447332 103.660751,42.887684 
	C100.428978,43.926693 99.977448,45.751236 101.194672,48.374962 
	C101.738686,49.547588 102.159683,50.862644 102.258301,52.142212 
	C102.765442,58.722305 103.643158,65.325569 103.460770,71.894897 
	C103.189903,81.651123 102.282578,91.399925 101.321915,101.119835 
	C101.068909,103.679703 101.069244,105.251907 104.008163,105.941208 
	C104.004692,123.606094 104.004562,140.767044 104.004440,157.928009 
	C101.589798,158.588913 99.175156,159.249817 96.380455,159.880524 
z"/>
<path fill="#A6C4F4" opacity="1.000000" stroke="none" 
	d="
M142.815872,133.952301 
	C139.755997,136.885391 136.696106,139.818481 133.021896,142.641525 
	C131.938385,140.142792 131.066193,137.755096 131.060425,135.365280 
	C130.973312,99.274170 130.976440,63.182743 131.046387,27.091558 
	C131.051758,24.313887 131.715836,21.537493 132.073761,18.760502 
	C135.566574,21.647280 139.059387,24.534060 142.289749,27.831806 
	C141.686615,29.110722 141.049393,29.978205 141.048035,30.846684 
	C140.996109,64.052948 140.984055,97.259361 141.077515,130.465439 
	C141.080811,131.629349 142.210938,132.790085 142.815872,133.952301 
z"/>
<path fill="#A9C8F3" opacity="1.000000" stroke="none" 
	d="
M131.912445,18.478615 
	C131.715836,21.537493 131.051758,24.313887 131.046387,27.091558 
	C130.976440,63.182743 130.973312,99.274170 131.060425,135.365280 
	C131.066193,137.755096 131.938385,140.142792 132.712494,142.772171 
	C129.995636,144.780914 126.973854,146.548981 123.509277,147.849930 
	C123.044350,104.280876 123.009209,61.178909 123.046654,18.077007 
	C123.048187,16.314692 123.732582,14.552971 124.098831,12.790974 
	C126.649597,14.592891 129.200378,16.394808 131.912445,18.478615 
z"/>
<path fill="#ABCAF0" opacity="1.000000" stroke="none" 
	d="
M123.900528,12.522860 
	C123.732582,14.552971 123.048187,16.314692 123.046654,18.077007 
	C123.009209,61.178909 123.044350,104.280876 123.132584,147.890839 
	C122.031799,149.592438 120.864914,150.786026 119.194962,151.634430 
	C118.461281,149.500565 118.039970,147.712875 118.030899,145.923096 
	C117.971092,134.117798 118.093918,122.310516 117.903229,110.507988 
	C117.873085,108.642128 116.557930,106.797028 115.898506,104.535446 
	C115.155502,98.468071 114.189026,92.823898 113.615929,87.140060 
	C113.337517,84.378807 113.745323,81.540077 113.928566,78.742058 
	C114.592094,68.610153 115.027565,58.451271 116.146439,48.368862 
	C116.464493,45.502876 116.506607,43.630871 114.094421,41.816307 
	C114.503731,39.624985 114.952866,37.836281 114.966293,36.044308 
	C115.036255,26.711788 114.995323,17.378437 114.992989,8.045377 
	C117.896072,9.448501 120.799149,10.851624 123.900528,12.522860 
z"/>
<path fill="#A2BFF6" opacity="1.000000" stroke="none" 
	d="
M143.113525,133.778381 
	C142.210938,132.790085 141.080811,131.629349 141.077515,130.465439 
	C140.984055,97.259361 140.996109,64.052948 141.048035,30.846684 
	C141.049393,29.978205 141.686615,29.110722 142.397156,28.138275 
	C145.554413,32.011745 148.341843,35.989716 151.180542,40.304516 
	C150.821213,42.712795 150.061417,44.782932 150.053604,46.855904 
	C149.968094,69.549484 149.965927,92.243675 150.065048,114.937149 
	C150.072922,116.741020 151.003052,118.540878 151.740173,120.647636 
	C149.120926,125.169930 146.266052,129.387192 143.113525,133.778381 
z"/>
<path fill="#AFCFEE" opacity="1.000000" stroke="none" 
	d="
M114.776505,7.766966 
	C114.995323,17.378437 115.036255,26.711788 114.966293,36.044308 
	C114.952866,37.836281 114.503731,39.624985 113.692978,41.907631 
	C110.086082,42.525688 107.041809,42.651314 103.997528,42.776936 
	C104.047859,31.447332 104.071938,20.117468 104.184608,8.788486 
	C104.197449,7.497149 104.707008,6.210752 104.998016,4.543703 
	C108.193192,5.273080 111.376602,6.380818 114.776505,7.766966 
z"/>
<path fill="#B0CFEF" opacity="1.000000" stroke="none" 
	d="
M104.370850,157.913818 
	C104.004562,140.767044 104.004692,123.606094 104.455429,105.980263 
	C107.270584,105.692986 109.635124,105.870575 111.999802,106.513809 
	C112.008560,123.011726 112.017197,139.044006 112.025833,155.076279 
	C109.596313,156.017395 107.166794,156.958496 104.370850,157.913818 
z"/>
<path fill="#ADCCF0" opacity="1.000000" stroke="none" 
	d="
M112.390350,155.051208 
	C112.017197,139.044006 112.008560,123.011726 112.332809,106.431915 
	C113.722763,105.570374 114.779831,105.256355 115.836899,104.942337 
	C116.557930,106.797028 117.873085,108.642128 117.903229,110.507988 
	C118.093918,122.310516 117.971092,134.117798 118.030899,145.923096 
	C118.039970,147.712875 118.461281,149.500565 118.860672,151.680237 
	C116.937904,153.056183 114.846382,154.041153 112.390350,155.051208 
z"/>
<path fill="#050606" opacity="1.000000" stroke="none" 
	d="
M93.449539,75.859726 
	C94.819992,82.965393 96.160889,89.818245 96.818611,96.736053 
	C97.074905,99.431679 95.792511,102.273598 95.057434,105.389709 
	C91.891754,105.823776 88.879616,105.917015 85.433380,106.149323 
	C78.602631,105.798141 78.130173,105.170525 81.617012,99.782188 
	C87.089973,91.324623 85.380905,82.794746 81.947418,74.451714 
	C81.096954,72.385178 77.917404,71.277161 75.423531,69.801392 
	C67.590607,69.334587 60.779972,75.235756 60.048779,82.448204 
	C59.298180,89.852036 60.873760,96.131233 67.077652,100.844788 
	C69.210892,102.465561 71.098007,104.505051 66.375893,106.001663 
	C62.923641,106.106644 59.848209,106.125763 56.384377,106.204330 
	C50.301167,105.000099 49.893120,100.699730 50.769711,96.256859 
	C52.773609,86.100380 55.125240,76.012169 57.364918,65.902718 
	C58.139114,62.408150 59.410690,58.962200 59.663265,55.437305 
	C59.809036,53.402969 58.373398,51.255314 57.649536,49.158665 
	C56.197350,50.092266 54.760681,51.051346 53.286709,51.949188 
	C52.498234,52.429478 51.407436,53.340874 50.875637,53.105003 
	C50.005547,52.719086 49.154434,51.654160 48.866653,50.702824 
	C47.684856,46.796066 49.852032,44.605522 56.627216,42.904709 
	C62.053806,42.672638 67.110146,42.527813 72.544777,42.318897 
	C76.492401,44.094097 81.621330,41.181877 84.554375,46.136658 
	C87.638374,56.083618 90.392632,65.858253 93.449539,75.859726 
M69.568153,62.806171 
	C71.600281,62.199898 73.710548,61.771599 75.637390,60.925549 
	C76.949150,60.349579 79.088997,59.009308 78.975281,58.322674 
	C78.599747,56.055000 77.707710,53.666454 76.314026,51.866142 
	C75.675064,51.040749 72.665977,50.774494 72.005234,51.468002 
	C69.484268,54.113991 66.983704,57.019852 65.448997,60.286060 
	C64.300858,62.729572 65.736710,64.499664 69.568153,62.806171 
z"/>
<path fill="#070809" opacity="1.000000" stroke="none" 
	d="
M115.898499,104.535454 
	C114.779831,105.256355 113.722763,105.570374 112.332680,105.966278 
	C109.635124,105.870575 107.270584,105.692986 104.458771,105.476334 
	C101.069244,105.251907 101.068909,103.679703 101.321915,101.119835 
	C102.282578,91.399925 103.189903,81.651123 103.460770,71.894897 
	C103.643158,65.325569 102.765442,58.722305 102.258301,52.142212 
	C102.159683,50.862644 101.738686,49.547588 101.194672,48.374962 
	C99.977448,45.751236 100.428978,43.926693 103.660751,42.887684 
	C107.041809,42.651314 110.086082,42.525688 113.531815,42.308739 
	C116.506607,43.630871 116.464493,45.502876 116.146439,48.368862 
	C115.027565,58.451271 114.592094,68.610153 113.928566,78.742058 
	C113.745323,81.540077 113.337517,84.378807 113.615929,87.140060 
	C114.189026,92.823898 115.155502,98.468071 115.898499,104.535454 
z"/>
<path fill="#B4D5DD" opacity="1.000000" stroke="none" 
	d="
M69.200867,62.912270 
	C65.736710,64.499664 64.300858,62.729572 65.448997,60.286060 
	C66.983704,57.019852 69.484268,54.113991 72.005234,51.468002 
	C72.665977,50.774494 75.675064,51.040749 76.314026,51.866142 
	C77.707710,53.666454 78.599747,56.055000 78.975281,58.322674 
	C79.088997,59.009308 76.949150,60.349579 75.637390,60.925549 
	C73.710548,61.771599 71.600281,62.199898 69.200867,62.912270 
z"/>
</svg>